<svg xmlns="http://www.w3.org/2000/svg" viewBox="0 0 640 420" fill="none">
  <defs><linearGradient id="bg" x1="0" y1="0" x2="640" y2="420" gradientUnits="userSpaceOnUse"><stop stop-color="#f8fafc"/><stop offset="1" stop-color="#e9eff4"/></linearGradient><linearGradient id="box" x1="190" y1="128" x2="440" y2="333" gradientUnits="userSpaceOnUse"><stop stop-color="#dec59d"/><stop offset="1" stop-color="#b9915d"/></linearGradient></defs>
  <path fill="url(#bg)" d="M0 0h640v420H0z"/><path fill="#edf2f4" d="M0 320h640v100H0z"/><ellipse cx="322" cy="338" rx="160" ry="18" fill="#6b7880" fill-opacity=".13"/>
  <path d="m176 174 234-72 104 44-235 78-103-50Z" fill="#f0dfbf" stroke="#b9915d" stroke-width="4"/><path d="m176 174 103 50v105l-103-53V174Z" fill="#c7a778" stroke="#a98352" stroke-width="4"/><path d="m279 224 235-78v104l-235 79V224Z" fill="url(#box)" stroke="#a98352" stroke-width="4"/>
  <path d="m200 178 211-67 61 26-211 70-61-29Z" fill="#f8f3e9"/><path d="m204 187 49 24v78l-49-25v-77Z" fill="#d9eff8"/><path d="m212 195 13 6v54l-13-7v-53Zm19 9 13 6v54l-13-7v-53Z" fill="#75b9d8"/><path d="m285 238 196-65" stroke="#f7eddc" stroke-width="7"/><path d="m303 256 112-37" stroke="#fff6e6" stroke-width="4"/><text x="381" y="207" fill="#256894" font-family="Arial,sans-serif" font-size="16" font-weight="700" text-anchor="middle" transform="rotate(-16 381 207)">AIR MINERAL</text><text x="384" y="226" fill="#256894" font-family="Arial,sans-serif" font-size="10" font-weight="700" text-anchor="middle" transform="rotate(-16 384 226)">600 ml x 24</text>
</svg>
